<svg xmlns="http://www.w3.org/2000/svg" viewBox="0 0 17.61 37.92"><defs><style>.cls-1{fill:#fff;fill-rule:evenodd;}</style></defs><g id="Layer_2" data-name="Layer 2"><g id="Objects"><path class="cls-1" d="M3.88,19.11V37.44a.48.48,0,0,0,.48.48h6.81a.48.48,0,0,0,.47-.48V18.81h4.94a.47.47,0,0,0,.47-.44l.48-5.61a.48.48,0,0,0-.48-.52H11.64v-4a1.69,1.69,0,0,1,1.69-1.69h3.81a.48.48,0,0,0,.47-.48V.48A.47.47,0,0,0,17.14,0H10.71A6.83,6.83,0,0,0,3.88,6.83v5.41H.48a.47.47,0,0,0-.48.48v5.61a.47.47,0,0,0,.48.48h3.4Z"/></g></g></svg>