<svg xmlns="http://www.w3.org/2000/svg" viewBox="0 0 38.69 38.69"><defs><style>.cls-1{fill:#fff;}</style></defs><g id="Layer_2" data-name="Layer 2"><g id="Objects"><path class="cls-1" d="M31.83,9a2.25,2.25,0,1,1-2.24-2.24A2.24,2.24,0,0,1,31.83,9ZM29,19.07a9.43,9.43,0,1,1-9.43-9.42A9.44,9.44,0,0,1,29,19.07Zm-3.39,0a6,6,0,1,0-6,6A6,6,0,0,0,25.65,19.07Zm13-7.57A11.5,11.5,0,0,0,27.19,0H11.5A11.5,11.5,0,0,0,0,11.5V27.19a11.5,11.5,0,0,0,11.5,11.5H27.19a11.5,11.5,0,0,0,11.5-11.5ZM34.92,27a7.9,7.9,0,0,1-7.9,7.9H11.67A7.9,7.9,0,0,1,3.77,27V11.67a7.9,7.9,0,0,1,7.9-7.9H27a7.9,7.9,0,0,1,7.9,7.9Z"/></g></g></svg>