<svg xmlns="http://www.w3.org/2000/svg" viewBox="0 0 32.53 42.01"><defs><style>.cls-1{fill:#fffefd;fill-rule:evenodd;}</style></defs><g id="Layer_2" data-name="Layer 2"><g id="Objects"><path class="cls-1" d="M13.6,27.41c0,.12-.06.22-.09.32-1.54,6.05-1.71,7.39-3.3,10.2a32.43,32.43,0,0,1-2.55,3.81c-.11.13-.21.31-.42.27S7,41.75,7,41.56A33,33,0,0,1,6.63,36c.08-2.42.38-3.25,3.49-16.35a.84.84,0,0,0-.07-.54A9.25,9.25,0,0,1,9.81,13c1.41-4.47,6.48-4.81,7.36-1.13.55,2.28-.9,5.27-2,9.68-.92,3.64,3.36,6.22,7,3.57,3.38-2.45,4.69-8.32,4.44-12.48C26.14,4.36,17,2.57,11.27,5.24,4.65,8.3,3.15,16.5,6.14,20.25c.38.47.67.76.54,1.25-.19.75-.36,1.5-.57,2.25a.79.79,0,0,1-1.18.53,6.72,6.72,0,0,1-2.76-2.07c-2.54-3.14-3.26-9.35.09-14.62C6,1.77,12.89-.59,19.2.12,26.74,1,31.5,6.13,32.4,12c.4,2.67.11,9.23-3.63,13.87-4.29,5.33-11.26,5.68-14.48,2.41C14.05,28,13.85,27.71,13.6,27.41Z"/></g></g></svg>